<?xml version="1.0" encoding="utf-8"?>
<!-- Generator: Adobe Illustrator 26.0.2, SVG Export Plug-In . SVG Version: 6.00 Build 0)  -->
<svg version="1.1" id="Calque_1" xmlns="http://www.w3.org/2000/svg" xmlns:xlink="http://www.w3.org/1999/xlink" x="0px" y="0px"
	 viewBox="0 0 768 637" style="enable-background:new 0 0 768 637;" xml:space="preserve">
<style type="text/css">
	.st0{fill:#FFFFFF;}
</style>
<g>
	<circle class="st0" cx="235.8" cy="360.5" r="84.2"/>
	<g>
		<path class="st0" d="M235.8,182.9c-97.9,0-177.6,79.7-177.6,177.6c0,97.9,79.7,177.6,177.6,177.6c97.9,0,177.6-79.7,177.6-177.6
			C413.4,262.5,333.8,182.9,235.8,182.9z M235.8,508.7c-81.8,0-148.2-66.3-148.2-148.2S154,212.3,235.8,212.3
			c81.8,0,148.2,66.3,148.2,148.2S317.7,508.7,235.8,508.7z"/>
		<path class="st0" d="M656.2,86.2h-16.5V36.3h-46.8v49.9h-28.8V36.3H454.4v49.9h-64.8v-22c0-34.2-27.8-62-62-62H197.9
			c-34.2,0-62,27.8-62,62v22h-24C51.7,86.2,3,134.9,3,195v331c0,60.1,48.7,108.8,108.8,108.8h544.4c60.1,0,108.8-48.7,108.8-108.8
			V195C765,134.9,716.3,86.2,656.2,86.2z M180.8,64.2c0-9.4,7.6-17,17-17h129.7c9.4,0,17,7.6,17,17v22H180.8V64.2z M235.8,549.9
			c-104.5,0-189.4-85-189.4-189.4c0-104.5,85-189.4,189.4-189.4c104.5,0,189.4,85,189.4,189.4C425.3,464.9,340.3,549.9,235.8,549.9z
			 M648.4,220.2c0,11.6-9.4,21-21,21h-37.5c-11.6,0-21-9.4-21-21v-37.5c0-11.6,9.4-21,21-21h37.5c11.6,0,21,9.4,21,21V220.2z"/>
	</g>
</g>
</svg>
